<svg xmlns="http://www.w3.org/2000/svg"  viewBox="0 0 100 100" width="500px" height="500px"><polygon fill="#4b4dff" points="79,78 18.126,78 18.126,19 78.622,19"/><path fill="#edf7f5" d="M43.835,75.54h9.873V53.657h5.915l0.807-7.377h-6.722l0.009-4.139c0-1.975,0.19-3.019,3.009-3.019 H61v-7.348h-7.348c-7.263,0-9.816,3.655-9.816,9.807v4.699H40v7.377h3.835V75.54z"/><path fill="#4343bf" d="M82,81H15V16h67.052L82,81z M21,75h54.051l0.897-53H21V75z"/><polygon fill="#3abcf8" points="85,85 21,85 21,75 75,75 75,22 85,22"/></svg>